<?xml version="1.0" standalone="no"?><!DOCTYPE svg PUBLIC "-//W3C//DTD SVG 1.1//EN" "http://www.w3.org/Graphics/SVG/1.1/DTD/svg11.dtd"><svg t="1682415575656" class="icon" viewBox="0 0 1024 1024" version="1.1" xmlns="http://www.w3.org/2000/svg" p-id="8100" xmlns:xlink="http://www.w3.org/1999/xlink" width="200" height="200"><path d="M902.383 461.687c6.417-6.417 12.834-12.8 19.217-12.8h89.6c6.383 0 12.8-6.382 12.8-12.765v-102.23c0-6.417-6.417-12.8-12.8-12.8H908.8c-6.417 0-19.183 6.383-19.183 12.8L780.8 448.922c-6.383 6.348-12.8 6.348-12.8 0l-57.583-115.03c-6.417-6.417-12.8-12.8-19.217-12.8H524.8c-6.383 0-12.8 6.383-12.8 12.8v102.23c0 6.383 6.417 12.765 12.8 12.765h102.4c6.417 0 12.8 6.383 19.183 12.8l38.4 83.081v19.149l-115.2 134.178c-6.383 0-12.766 6.417-19.183 6.417h-89.6c-6.383 0-12.8 6.383-12.8 12.766v102.23c0 6.382 6.417 12.8 12.8 12.8h102.4c6.383 0 19.183-6.418 19.183-12.8L729.6 653.38c6.417-6.383 12.8-6.383 12.8 0l83.183 166.127c0 6.383 12.8 12.8 19.217 12.8h102.4a13.756 13.756 0 0 0 12.8-12.8v-102.23a13.756 13.756 0 0 0-12.8-12.765h-38.4c-6.417 0-12.8-6.417-19.183-12.8l-64.034-127.795v-19.149l76.8-83.08zM377.617 65.502C345.6 91.068 313.583 129.399 294.4 193.297l-31.983 127.795H76.8a13.756 13.756 0 0 0-12.8 12.8v102.23c0 6.383 6.383 12.765 12.8 12.765h153.6l-96.017 383.42C115.2 908.971 64 896.205 64 896.205H0V1024h64c51.2 0 102.4-6.383 128-38.332 32.017-31.949 51.2-89.463 64-153.36l96.017-383.42H499.2c6.383 0 12.8-6.383 12.8-12.766v-102.23c0-6.417-6.417-12.8-12.8-12.8H384l32.017-121.412c6.383-19.149 38.4-51.098 57.583-63.898C543.983 84.651 640 116.6 704 129.4V20.753c-64-12.766-204.8-57.48-326.383 44.715z" p-id="8101"></path></svg>
