<?xml version="1.0" standalone="no"?><!DOCTYPE svg PUBLIC "-//W3C//DTD SVG 1.1//EN" "http://www.w3.org/Graphics/SVG/1.1/DTD/svg11.dtd"><svg t="1682415592198" class="icon" viewBox="0 0 1204 1024" version="1.1" xmlns="http://www.w3.org/2000/svg" p-id="8235" xmlns:xlink="http://www.w3.org/1999/xlink" width="235.15625" height="200"><path d="M713.908706 138.541176v84.329412H146.974118c-21.684706 0-41.321412 19.636706-44.212706 46.019765l-0.361412 6.686118v593.317647c0 27.407059 17.950118 49.152 39.152941 52.284235l5.421177 0.421647h910.757647c21.684706 0 41.321412-19.636706 44.212706-46.019765l0.361411-6.686117v-593.317647c0-27.407059-17.950118-49.152-39.152941-52.284236l-5.421176-0.421647h-80.474353V138.541176h80.474353c68.728471 0 123.904 57.103059 128.602353 127.397648l0.301176 9.637647v593.317647c0 71.378824-52.163765 131.614118-119.627294 136.734117l-9.276235 0.301177H146.974118c-68.728471 0-123.904-57.103059-128.602353-127.397647l-0.301177-9.637647v-593.317647c0-71.378824 52.224-131.614118 119.627294-136.734118L146.974118 138.541176h566.934588z" p-id="8236"></path><path d="M843.294118 18.070588c-88.907294 0-162.635294 63.126588-162.635294 145.227294v498.56753c0 20.239059 7.830588 39.634824 21.684705 54.512941l75.715765 81.739294c32.948706 35.538824 90.352941 36.201412 124.205177 1.626353l80.594823-82.522353c14.697412-14.998588 23.070118-34.936471 23.070118-55.898353V163.237647C1005.929412 81.197176 932.201412 18.070588 843.294118 18.070588z m8.854588 84.690824c40.357647 3.433412 69.451294 30.298353 69.451294 60.53647v495.917177l-79.570824 81.498353-1.084235 0.180706-1.024-0.120471-74.932706-80.835765V163.297882c0-32.406588 33.310118-60.897882 78.305883-60.897882l8.854588 0.361412z" p-id="8237"></path><path d="M150.588235 543.683765h-60.235294c-16.082824 0-30.117647 13.312-30.117647 28.551529s14.034824 28.551529 30.117647 28.55153h60.235294c16.082824 0 30.117647-13.312 30.117647-28.55153s-14.034824-28.551529-30.117647-28.551529M150.588235 664.154353h-60.235294c-16.082824 0-30.117647 13.312-30.117647 28.551529s14.034824 28.551529 30.117647 28.55153h60.235294c16.082824 0 30.117647-13.312 30.117647-28.55153s-14.034824-28.551529-30.117647-28.551529M150.588235 423.213176h-60.235294c-16.082824 0-30.117647 13.312-30.117647 28.55153s14.034824 28.551529 30.117647 28.551529h60.235294c16.082824 0 30.117647-13.312 30.117647-28.551529s-14.034824-28.551529-30.117647-28.55153" p-id="8238"></path></svg>